<svg width="35" height="35" viewBox="0 0 35 35" fill="none" xmlns="http://www.w3.org/2000/svg">
<path d="M18.7096 29.0782V29.3613L18.9906 29.3263C24.8692 28.5932 29.418 23.5789 29.418 17.5018C29.418 10.9204 24.0827 5.58512 17.5013 5.58512C10.9199 5.58512 5.58464 10.9204 5.58464 17.5018C5.58464 23.5789 10.1334 28.5932 16.012 29.3263L16.293 29.3613V29.0782V20.4185V20.1685H16.043H13.1263C12.459 20.1685 11.918 19.6275 11.918 18.9601C11.918 18.2928 12.459 17.7518 13.1263 17.7518H16.043H16.293V17.5018V14.5851C16.293 12.307 18.1397 10.4601 20.418 10.4601H21.1471C21.8145 10.4601 22.3555 11.0011 22.3555 11.6685C22.3555 12.3358 21.8145 12.8768 21.1471 12.8768H20.418C19.4745 12.8768 18.7096 13.6416 18.7096 14.5851V17.5018V17.7518H18.9596H21.8763C22.5437 17.7518 23.0846 18.2928 23.0846 18.9601C23.0846 19.6275 22.5437 20.1685 21.8763 20.1685H18.9596H18.7096V20.4185V29.0782ZM31.8346 17.5018C31.8346 25.4178 25.4173 31.8351 17.5013 31.8351C9.58522 31.8351 3.16797 25.4178 3.16797 17.5018C3.16797 9.58571 9.58522 3.16846 17.5013 3.16846C25.4173 3.16846 31.8346 9.58571 31.8346 17.5018Z" fill="#333333" stroke="#F7F7F7" stroke-width="0.5"/>
</svg>
