<svg width="35" height="35" viewBox="0 0 35 35" fill="none" xmlns="http://www.w3.org/2000/svg">
<path d="M23.3333 4.625C27.2223 4.625 30.375 7.77767 30.375 11.6667V23.3333C30.375 27.2223 27.2223 30.375 23.3333 30.375H11.6667C7.77767 30.375 4.625 27.2223 4.625 23.3333L4.625 11.6667C4.625 7.77767 7.77767 4.625 11.6667 4.625L23.3333 4.625ZM23.3333 7.04167L11.6667 7.04167C9.11236 7.04167 7.04167 9.11236 7.04167 11.6667L7.04167 23.3333C7.04167 25.8877 9.11236 27.9583 11.6667 27.9583H23.3333C25.8877 27.9583 27.9583 25.8877 27.9583 23.3333V11.6667C27.9583 9.11236 25.8877 7.04167 23.3333 7.04167ZM17.5 11.9167C20.5835 11.9167 23.0833 14.4164 23.0833 17.5C23.0833 20.5835 20.5835 23.0833 17.5 23.0833C14.4164 23.0833 11.9167 20.5835 11.9167 17.5C11.9167 14.4164 14.4164 11.9167 17.5 11.9167ZM17.5 14.3333C15.7511 14.3333 14.3333 15.7511 14.3333 17.5C14.3333 19.2489 15.7511 20.6667 17.5 20.6667C19.2489 20.6667 20.6667 19.2489 20.6667 17.5C20.6667 15.7511 19.2489 14.3333 17.5 14.3333ZM24.0625 9.72917C24.7299 9.72917 25.2708 10.2702 25.2708 10.9375C25.2708 11.6048 24.7299 12.1458 24.0625 12.1458C23.3951 12.1458 22.8542 11.6048 22.8542 10.9375C22.8542 10.2702 23.3951 9.72917 24.0625 9.72917Z" fill="#333333" stroke="#F7F7F7" stroke-width="0.5"/>
</svg>
