<svg width="35" height="35" viewBox="0 0 35 35" fill="none" xmlns="http://www.w3.org/2000/svg">
<path d="M4.00108 17.1918L4.00109 17.1918L28.939 6.69158C30.3442 6.09991 31.8507 7.28815 31.6025 8.79254L28.2937 28.8544C28.0016 30.6254 26.0594 31.6345 24.4415 30.7557C22.9588 29.9504 20.7623 28.7126 18.785 27.4206C17.7974 26.7752 16.8451 26.1039 16.0572 25.4559L16.0572 25.4559C15.5417 25.032 15.0423 24.5752 14.6491 24.1048L14.5836 24.0265L14.482 24.0164C13.023 23.8717 11.1874 23.3579 9.48585 22.7969C7.41682 22.1147 5.35186 21.2947 4.00105 20.7347C2.38975 20.0668 2.45377 17.8432 4.00108 17.1918ZM6.60388 18.718L6.03706 18.9566L6.60964 19.1811C7.70741 19.6115 8.97782 20.0847 10.2425 20.5018L10.2426 20.5018C11.8825 21.0424 13.3918 21.4461 14.4857 21.586L14.6074 21.6016L14.6942 21.5148L21.0208 15.1882L20.844 15.0115L21.0208 15.1882C21.4927 14.7164 22.2578 14.7164 22.7296 15.1882L22.9064 15.0115L22.7296 15.1882C23.2015 15.6601 23.2015 16.4252 22.7296 16.8971L16.953 22.6738L16.7717 22.8551L16.9575 23.0318C17.1341 23.1996 17.3447 23.3859 17.5921 23.5894L17.5921 23.5894C18.2854 24.1595 19.1574 24.777 20.1069 25.3976L20.1069 25.3976C21.9843 26.6242 24.0901 27.8138 25.5486 28.6069L25.8575 28.7749L25.9147 28.428L29.003 9.70253L29.0767 9.2557L28.6593 9.43144L6.60388 18.718Z" fill="#333333" stroke="#F7F7F7" stroke-width="0.5"/>
</svg>
