<svg width="35" height="35" viewBox="0 0 35 35" fill="none" xmlns="http://www.w3.org/2000/svg">
<path d="M17.5013 2.91858C25.5554 2.91858 32.0846 9.44776 32.0846 17.5019C32.0846 25.556 25.5554 32.0853 17.5013 32.0853C14.9293 32.0853 12.5096 31.4183 10.4093 30.2473L9.96421 29.9888L5.5426 31.2893C4.47745 31.6026 3.48412 30.675 3.67611 29.6197L3.71394 29.4605L5.01441 25.039C3.68367 22.8385 2.91797 20.2576 2.91797 17.5019C2.91797 9.44776 9.44715 2.91858 17.5013 2.91858ZM17.5013 5.83525C11.058 5.83525 5.83464 11.0586 5.83464 17.5019C5.83464 19.8016 6.49847 21.9417 7.6444 23.7462C7.93369 24.2019 8.05675 24.7616 7.95873 25.317L7.90302 25.5544L7.25895 27.7442L9.44878 27.1002C10.0795 26.9147 10.7363 27.0282 11.257 27.3588C13.0616 28.5048 15.2017 29.1686 17.5013 29.1686C23.9447 29.1686 29.168 23.9453 29.168 17.5019C29.168 11.0586 23.9447 5.83525 17.5013 5.83525ZM13.2745 10.4787C13.5893 10.3438 13.9705 10.3685 14.2719 10.5883C15.0075 11.1249 15.5916 11.8447 16.0932 12.5486L16.5698 13.2399C16.6455 13.3518 16.7195 13.4613 16.7923 13.5677C17.0584 13.957 17.0278 14.4743 16.7262 14.8273L16.6157 14.9385L15.269 15.9386C15.1356 16.0377 15.0911 16.2179 15.1712 16.3637C15.476 16.9183 16.0188 17.7436 16.6399 18.3647C17.2617 18.9865 18.1261 19.5644 18.7187 19.9034C18.8468 19.9766 19.0024 19.9535 19.107 19.8581L19.1629 19.7924L20.0391 18.4579C20.375 18.0109 21.0023 17.9132 21.4583 18.2287L22.25 18.7806C23.0367 19.3421 23.7941 19.9457 24.3927 20.7123C24.6285 21.0143 24.6635 21.4091 24.5229 21.7372C23.9454 23.0849 22.4837 24.2326 20.9634 24.1766L20.7322 24.1632L20.4523 24.1355C20.4018 24.1295 20.3494 24.1226 20.2951 24.1149L19.9485 24.0574C18.6014 23.8031 16.4405 23.0392 14.2029 20.8017C11.9654 18.5642 11.2015 16.4032 10.9472 15.0561L10.8897 14.7094L10.8531 14.4065L10.8332 14.1505C10.831 14.112 10.8293 14.0755 10.828 14.0412C10.772 12.5187 11.9259 11.0567 13.2745 10.4787Z" fill="#333333" stroke="#F7F7F7" stroke-width="0.5"/>
</svg>
