<svg width="35" height="35" viewBox="0 0 35 35" fill="none" xmlns="http://www.w3.org/2000/svg">
<path d="M33.3042 9.16741L33.3064 9.17529L33.3086 9.18313C33.7167 10.5906 33.9327 12.7677 34.0421 14.6541C34.096 15.5846 34.123 16.423 34.1365 17.0287C34.1433 17.3313 34.1467 17.5754 34.1483 17.7432C34.1492 17.8271 34.1496 17.892 34.1498 17.9355L34.15 17.9846L34.15 17.9966L34.15 17.9994V18V18V18.0001V18.0007L34.15 18.0037L34.15 18.0159L34.1498 18.0655C34.1497 18.1094 34.1494 18.1746 34.1487 18.2589C34.1475 18.4275 34.1449 18.6724 34.1399 18.976C34.1297 19.5836 34.1094 20.4245 34.0688 21.3582C33.9871 23.2362 33.8257 25.4216 33.5177 26.8522C33.1507 28.1928 32.2725 29.107 31.0565 29.4834C30.4211 29.6355 29.2829 29.7611 27.8699 29.8582C26.4609 29.955 24.8398 30.0199 23.3003 30.0633C21.762 30.1066 20.3113 30.1283 19.2448 30.1392C18.7117 30.1446 18.275 30.1473 17.9717 30.1486C17.8201 30.1493 17.7019 30.1497 17.6217 30.1498L17.5306 30.15L17.5075 30.15L17.5018 30.15H17.5004H17.5001H17.5V31L17.4999 30.15H17.4996H17.4982L17.4923 30.15L17.4688 30.15L17.3758 30.1498C17.2941 30.1497 17.1736 30.1493 17.0192 30.1486C16.7104 30.1473 16.266 30.1446 15.7243 30.1392C14.6407 30.1283 13.1695 30.1066 11.6175 30.0633C10.0641 30.0199 8.43657 29.955 7.03817 29.8582C5.62573 29.7605 4.52157 29.6344 3.95099 29.4857C2.7311 29.1108 1.85015 28.1956 1.48236 26.8522C1.17429 25.4216 1.01291 23.2362 0.931232 21.3582C0.890625 20.4245 0.870299 19.5835 0.860136 18.976C0.855057 18.6724 0.852523 18.4275 0.851258 18.2589C0.850626 18.1746 0.850311 18.1094 0.850155 18.0655L0.850019 18.0159L0.850002 18.0037L0.85 18.0007L0.85 18.0001V18V17.9998L0.85 17.9991L0.850002 17.9961L0.850013 17.9836L0.850104 17.9335C0.850209 17.8893 0.85042 17.8237 0.850844 17.739C0.85169 17.5696 0.853386 17.3238 0.856782 17.0192C0.863577 16.4099 0.877166 15.5663 0.904327 14.6295C0.958401 12.7645 1.06522 10.5755 1.27132 9.11991C1.64289 7.79433 2.5174 6.89012 3.72518 6.51644C5.05488 6.19447 7.06666 6.02298 9.46707 5.9365C11.8651 5.85011 14.5833 5.85 17.2812 5.85C19.9792 5.85 22.7522 5.8501 25.1778 5.93651C27.6166 6.0234 29.6195 6.19591 30.8299 6.51413C32.0559 6.89081 32.9396 7.81316 33.3042 9.16741ZM13.15 21.7955C13.15 23.2374 14.7263 24.125 15.9593 23.3774L22.2182 19.5819C23.4059 18.8617 23.4059 17.1383 22.2182 16.4181L15.9593 12.6226C14.7263 11.875 13.15 12.7626 13.15 14.2045V21.7955Z" stroke="black" stroke-width="1.7"/>
</svg>
