<svg width="35" height="35" viewBox="0 0 35 35" fill="none" xmlns="http://www.w3.org/2000/svg">
<path d="M33.3064 9.17529L33.3042 9.16741C32.9396 7.81316 32.0559 6.89081 30.8299 6.51413C29.6195 6.19591 27.6166 6.0234 25.1778 5.93651C22.7522 5.8501 19.9792 5.85 17.2812 5.85C14.5833 5.85 11.8651 5.85011 9.46707 5.9365C7.06666 6.02298 5.05487 6.19447 3.72518 6.51644C2.5174 6.89012 1.64289 7.79433 1.27132 9.11991C1.06522 10.5755 0.958401 12.7645 0.904327 14.6295C0.877166 15.5663 0.863577 16.4099 0.856782 17.0192C0.853386 17.3238 0.85169 17.5696 0.850844 17.739C0.85042 17.8237 0.850209 17.8893 0.850104 17.9335L0.850013 17.9836L0.850002 17.9961L0.85 17.9991L0.85 17.9998V18V18.0001L0.85 18.0007L0.850002 18.0037L0.850019 18.0159L0.850155 18.0655C0.850311 18.1094 0.850626 18.1746 0.851258 18.2589C0.852523 18.4275 0.855057 18.6724 0.860136 18.976C0.870299 19.5835 0.890625 20.4245 0.931232 21.3582C1.01291 23.2362 1.17429 25.4216 1.48236 26.8522C1.85015 28.1956 2.73108 29.1108 3.95095 29.4857C4.52151 29.6344 5.6257 29.7605 7.03818 29.8582C8.43657 29.955 10.0641 30.0199 11.6175 30.0633C13.1695 30.1066 14.6407 30.1283 15.7243 30.1392C16.266 30.1446 16.7104 30.1473 17.0192 30.1486C17.1736 30.1493 17.2941 30.1497 17.3758 30.1498L17.4688 30.15L17.4923 30.15L17.4982 30.15L17.4996 30.15H17.4999L17.5 31M33.3064 9.17529L34.9436 8.71741C34.4331 6.83088 33.1358 5.43684 31.3092 4.883L31.2949 4.87867L31.2805 4.87485C29.8643 4.49912 27.677 4.32447 25.2383 4.23759C22.7795 4.15 19.9781 4.15 17.2908 4.15H17.2812H17.2714C14.5843 4.15 11.8375 4.15 9.40586 4.23761C6.98752 4.32473 4.81214 4.49997 3.29782 4.87083L3.27544 4.87631L3.25338 4.883C1.42418 5.43762 0.125733 6.83483 -0.38328 8.72545L-0.396447 8.77436L-0.403713 8.82448C-0.630272 10.3873 -0.740303 12.6951 -0.794959 14.5803C-0.822484 15.5296 -0.836236 16.3836 -0.843112 17.0003C-0.846551 17.3087 -0.848273 17.558 -0.849135 17.7305C-0.849566 17.8168 -0.849782 17.8838 -0.849891 17.9295L-0.849986 17.9816L-0.849998 17.9951L-0.85 17.9987L-0.85 17.9996L-0.85 17.9999C-0.85 17.9999 -0.85 18 0 18C-0.85 18 -0.85 18.0001 -0.85 18.0002L-0.85 18.0005L-0.85 18.0015L-0.849997 18.0051L-0.849979 18.0189L-0.849834 18.0716C-0.84967 18.1176 -0.849344 18.185 -0.848694 18.2716C-0.847395 18.4449 -0.844802 18.6951 -0.839626 19.0045C-0.82928 19.6229 -0.808588 20.4795 -0.767163 21.432C-0.685171 23.3172 -0.519588 25.6465 -0.174332 27.2342L-0.169918 27.2545L-0.164517 27.2745C0.344493 29.1652 1.6429 30.5624 3.47211 31.117L3.48637 31.1213L3.50077 31.1251C4.24697 31.3231 5.51504 31.4569 6.9208 31.5542C8.35248 31.6533 10.0062 31.7189 11.57 31.7626C13.1352 31.8063 14.6171 31.8282 15.7073 31.8391C16.2526 31.8445 16.7002 31.8473 17.0118 31.8486C17.1676 31.8493 17.2893 31.8497 17.3723 31.8498L17.4671 31.85L17.4915 31.85L17.4978 31.85H17.4994H17.4998C17.4999 31.85 17.5 31.85 17.5 31M33.3064 9.17529L33.3086 9.18313C33.7167 10.5906 33.9327 12.7677 34.0421 14.6541C34.1498 16.5122 34.15 18 34.15 18C34.15 17.994 34.1501 19.4894 34.0688 21.3582C33.9871 23.2362 33.8257 25.4216 33.5177 26.8522C33.1507 28.1928 32.2725 29.107 31.0566 29.4834M33.3064 9.17529L31.0566 29.4834M17.5 31V30.15C17.4971 30.15 20.2222 30.15 23.3003 30.0633C24.8398 30.0199 26.4609 29.955 27.8699 29.8582C29.2829 29.7611 30.4211 29.6355 31.0566 29.4834M17.5 31V31.85C17.5029 31.85 20.2465 31.85 23.3481 31.7626C24.8984 31.7189 26.545 31.6532 27.9865 31.5542C29.4073 31.4566 30.6924 31.3229 31.4834 31.1292L31.5058 31.1237L31.5279 31.117C33.357 30.5624 34.6555 29.1652 35.1646 27.2745L35.17 27.2545L35.1744 27.2342C35.5196 25.6465 35.6852 23.3172 35.7672 21.432C35.8489 19.5524 35.85 18.0442 35.85 18.0009V18.0003L31.0566 29.4834M34.997 17.6224C34.997 17.6224 34.997 17.6223 34.997 17.6222C34.7382 17.6149 34.4441 17.7053 34.15 17.9991V17.9997C34.15 17.9996 34.5106 17.6391 34.997 17.6224ZM34.15 18.0003C34.15 18.0004 34.511 18.3613 34.9978 18.3776C34.9978 18.3777 34.9978 18.3777 34.9978 18.3777C34.7387 18.3853 34.4444 18.295 34.15 18.0009V18.0003ZM13.15 14.2045V21.7955C13.15 23.2374 14.7263 24.125 15.9593 23.3774L22.2182 19.5819C23.4059 18.8617 23.4059 17.1383 22.2182 16.4181L15.9593 12.6226C14.7263 11.875 13.15 12.7626 13.15 14.2045Z" stroke="black" stroke-width="1.7"/>
</svg>
