<svg width="40" height="40" viewBox="0 0 40 40" fill="none" xmlns="http://www.w3.org/2000/svg">
<path d="M23.332 3.33337V10C23.332 10.8841 23.6832 11.7319 24.3083 12.3571C24.9335 12.9822 25.7813 13.3334 26.6654 13.3334H33.332" stroke="#E1AF93" stroke-width="2.66667" stroke-linecap="round" stroke-linejoin="round"/>
<path d="M7.11464 35C7.40648 35.5055 7.82595 35.9255 8.33107 36.218C8.8362 36.5105 9.40927 36.6652 9.99297 36.6667H30.0013C30.8854 36.6667 31.7332 36.3155 32.3583 35.6904C32.9834 35.0653 33.3346 34.2174 33.3346 33.3334V11.6667L25.0013 3.33337H10.0013C9.11725 3.33337 8.2694 3.68456 7.64428 4.30968C7.01916 4.93481 6.66797 5.78265 6.66797 6.66671V11.6667" stroke="#E1AF93" stroke-width="2.66667" stroke-linecap="round" stroke-linejoin="round"/>
<path d="M15 30L12.5 27.5" stroke="#E1AF93" stroke-width="2.66667" stroke-linecap="round" stroke-linejoin="round"/>
<path d="M8.33203 28.3334C11.0935 28.3334 13.332 26.0948 13.332 23.3334C13.332 20.572 11.0935 18.3334 8.33203 18.3334C5.57061 18.3334 3.33203 20.572 3.33203 23.3334C3.33203 26.0948 5.57061 28.3334 8.33203 28.3334Z" stroke="#E1AF93" stroke-width="2.66667" stroke-linecap="round" stroke-linejoin="round"/>
</svg>
