<svg width="40" height="40" viewBox="0 0 40 40" fill="none" xmlns="http://www.w3.org/2000/svg">
<path d="M17.832 33.3334H6.66536C5.78131 33.3334 4.93346 32.9822 4.30834 32.3571C3.68322 31.7319 3.33203 30.8841 3.33203 30V8.33337C3.33203 7.44932 3.68322 6.60147 4.30834 5.97635C4.93346 5.35123 5.78131 5.00004 6.66536 5.00004H13.1654C13.7228 4.99457 14.2728 5.12902 14.7649 5.39107C15.2569 5.65312 15.6754 6.03441 15.982 6.50004L17.332 8.50004C17.6355 8.96092 18.0487 9.33924 18.5345 9.60104C19.0203 9.86285 19.5635 9.99995 20.1154 10H33.332C34.2161 10 35.0639 10.3512 35.6891 10.9763C36.3142 11.6015 36.6654 12.4493 36.6654 13.3334V20.1667" stroke="#E1AF93" stroke-width="2.66667" stroke-linecap="round" stroke-linejoin="round"/>
<path d="M34.9987 35L31.832 31.8334" stroke="#E1AF93" stroke-width="2.66667" stroke-linecap="round" stroke-linejoin="round"/>
<path d="M28.332 33.3334C31.0935 33.3334 33.332 31.0948 33.332 28.3334C33.332 25.572 31.0935 23.3334 28.332 23.3334C25.5706 23.3334 23.332 25.572 23.332 28.3334C23.332 31.0948 25.5706 33.3334 28.332 33.3334Z" stroke="#E1AF93" stroke-width="2.66667" stroke-linecap="round" stroke-linejoin="round"/>
</svg>
