<svg width="40" height="40" viewBox="0 0 40 40" fill="none" xmlns="http://www.w3.org/2000/svg">
<path d="M30.0013 8.33337L25.978 4.31004C25.353 3.68488 24.5053 3.33356 23.6213 3.33337H10.0013C9.11725 3.33337 8.2694 3.68456 7.64428 4.30968C7.01916 4.93481 6.66797 5.78265 6.66797 6.66671V33.3334C6.66797 34.2174 7.01916 35.0653 7.64428 35.6904C8.2694 36.3155 9.11725 36.6667 10.0013 36.6667H30.0013C30.8854 36.6667 31.7332 36.3155 32.3583 35.6904C32.9834 35.0653 33.3346 34.2174 33.3346 33.3334" stroke="#E1AF93" stroke-width="2.66667" stroke-linecap="round" stroke-linejoin="round"/>
<path d="M35.6296 21.0433C36.2936 20.3794 36.6666 19.4789 36.6666 18.54C36.6666 17.6011 36.2936 16.7006 35.6296 16.0367C34.9657 15.3727 34.0652 14.9998 33.1263 14.9998C32.1874 14.9998 31.2869 15.3727 30.623 16.0367L23.9396 22.7233C23.5434 23.1194 23.2533 23.6089 23.0963 24.1467L21.7013 28.93C21.6595 29.0734 21.657 29.2254 21.694 29.3702C21.7311 29.5149 21.8064 29.647 21.912 29.7526C22.0177 29.8582 22.1498 29.9335 22.2945 29.9706C22.4392 30.0077 22.5912 30.0052 22.7346 29.9633L27.518 28.5683C28.0557 28.4113 28.5453 28.1213 28.9413 27.725L35.6296 21.0433Z" stroke="#E1AF93" stroke-width="2.66667" stroke-linecap="round" stroke-linejoin="round"/>
<path d="M13.332 30H14.9987" stroke="#E1AF93" stroke-width="2.66667" stroke-linecap="round" stroke-linejoin="round"/>
</svg>
