<svg width="40" height="40" viewBox="0 0 40 40" fill="none" xmlns="http://www.w3.org/2000/svg">
<path d="M29.9987 10V6.66671C29.9987 5.78265 29.6475 4.93481 29.0224 4.30968C28.3973 3.68456 27.5494 3.33337 26.6654 3.33337C25.7813 3.33337 24.9335 3.68456 24.3083 4.30968C23.6832 4.93481 23.332 5.78265 23.332 6.66671V10" stroke="#E1AF93" stroke-width="2.66667" stroke-linecap="round" stroke-linejoin="round"/>
<path d="M33.3346 25V35C33.3346 35.442 33.159 35.866 32.8465 36.1785C32.5339 36.4911 32.11 36.6667 31.668 36.6667H10.8346C9.72957 36.6667 8.66976 36.2277 7.88836 35.4463C7.10696 34.6649 6.66797 33.6051 6.66797 32.5C6.66797 31.3949 7.10696 30.3351 7.88836 29.5537C8.66976 28.7723 9.72957 28.3333 10.8346 28.3333H33.3346" stroke="#E1AF93" stroke-width="2.66667" stroke-linecap="round" stroke-linejoin="round"/>
<path d="M6.66797 32.5V7.50004C6.66797 6.39497 7.10696 5.33516 7.88836 4.55376C8.66976 3.77236 9.72957 3.33337 10.8346 3.33337H16.668" stroke="#E1AF93" stroke-width="2.66667" stroke-linecap="round" stroke-linejoin="round"/>
<path d="M31.6667 10H21.6667C20.7462 10 20 10.7462 20 11.6667V16.6667C20 17.5871 20.7462 18.3333 21.6667 18.3333H31.6667C32.5871 18.3333 33.3333 17.5871 33.3333 16.6667V11.6667C33.3333 10.7462 32.5871 10 31.6667 10Z" stroke="#E1AF93" stroke-width="2.66667" stroke-linecap="round" stroke-linejoin="round"/>
</svg>
