<svg width="40" height="40" viewBox="0 0 40 40" fill="none" xmlns="http://www.w3.org/2000/svg">
<path d="M24.9983 20L11.0433 33.955C10.3803 34.618 9.48103 34.9905 8.54335 34.9905C7.60566 34.9905 6.70639 34.618 6.04335 33.955C5.38031 33.292 5.00781 32.3927 5.00781 31.455C5.00781 30.5173 5.38031 29.618 6.04335 28.955L19.9983 15" stroke="#E1AF93" stroke-width="2.66667" stroke-linecap="round" stroke-linejoin="round"/>
<path d="M30 25L36.6667 18.3334" stroke="#E1AF93" stroke-width="2.66667" stroke-linecap="round" stroke-linejoin="round"/>
<path d="M35.8333 19.1667L32.6433 15.9767C32.0182 15.3517 31.6669 14.504 31.6667 13.62V11.6667L27.9 7.90002C26.0409 6.04199 23.525 4.99061 20.8967 4.97335L15 4.93335L16.5333 6.30002C17.6224 7.26567 18.4945 8.45119 19.092 9.77842C19.6896 11.1057 19.999 12.5445 20 14V16.6667L23.3333 20H25.2867C26.1707 20.0002 27.0184 20.3515 27.6433 20.9767L30.8333 24.1667" stroke="#E1AF93" stroke-width="2.66667" stroke-linecap="round" stroke-linejoin="round"/>
</svg>
