<svg width="40" height="40" viewBox="0 0 40 40" fill="none" xmlns="http://www.w3.org/2000/svg">
<path d="M26.6693 35V31.6667C26.6693 29.8986 25.9669 28.2029 24.7166 26.9526C23.4664 25.7024 21.7707 25 20.0026 25H10.0026C8.23449 25 6.5388 25.7024 5.28856 26.9526C4.03832 28.2029 3.33594 29.8986 3.33594 31.6667V35" stroke="#E1AF93" stroke-width="3.33333" stroke-linecap="round" stroke-linejoin="round"/>
<path d="M15.0026 18.3333C18.6845 18.3333 21.6693 15.3486 21.6693 11.6667C21.6693 7.98477 18.6845 5 15.0026 5C11.3207 5 8.33594 7.98477 8.33594 11.6667C8.33594 15.3486 11.3207 18.3333 15.0026 18.3333Z" stroke="#E1AF93" stroke-width="3.33333" stroke-linecap="round" stroke-linejoin="round"/>
<path d="M26.6641 18.3333L29.9974 21.6667L36.6641 15" stroke="#E1AF93" stroke-width="3.33333" stroke-linecap="round" stroke-linejoin="round"/>
</svg>
