<svg width="5013" height="1189" viewBox="0 0 5013 1189" fill="none" xmlns="http://www.w3.org/2000/svg">
<g clip-path="url(#clip0_308_380)">
<path d="M1665.5 752L1598 654.5H1594H1523.5V752H1442.5V402H1594C1625 402 1651.83 407.167 1674.5 417.5C1697.5 427.833 1715.17 442.5 1727.5 461.5C1739.83 480.5 1746 503 1746 529C1746 555 1739.67 577.5 1727 596.5C1714.67 615.167 1697 629.5 1674 639.5L1752.5 752H1665.5ZM1664 529C1664 509.333 1657.67 494.333 1645 484C1632.33 473.333 1613.83 468 1589.5 468H1523.5V590H1589.5C1613.83 590 1632.33 584.667 1645 574C1657.67 563.333 1664 548.333 1664 529ZM2128.68 752L2128.18 542L2025.18 715H1988.68L1886.18 546.5V752H1810.18V402H1877.18L2008.18 619.5L2137.18 402H2203.68L2204.68 752H2128.68ZM2455.21 758C2419.55 758 2387.21 750.333 2358.21 735C2329.55 719.333 2306.88 697.833 2290.21 670.5C2273.88 642.833 2265.71 611.667 2265.71 577C2265.71 542.333 2273.88 511.333 2290.21 484C2306.88 456.333 2329.55 434.833 2358.21 419.5C2387.21 403.833 2419.71 396 2455.71 396C2486.05 396 2513.38 401.333 2537.71 412C2562.38 422.667 2583.05 438 2599.71 458L2547.71 506C2524.05 478.667 2494.71 465 2459.71 465C2438.05 465 2418.71 469.833 2401.71 479.5C2384.71 488.833 2371.38 502 2361.71 519C2352.38 536 2347.71 555.333 2347.71 577C2347.71 598.667 2352.38 618 2361.71 635C2371.38 652 2384.71 665.333 2401.71 675C2418.71 684.333 2438.05 689 2459.71 689C2494.71 689 2524.05 675.167 2547.71 647.5L2599.71 695.5C2583.05 715.833 2562.38 731.333 2537.71 742C2513.05 752.667 2485.55 758 2455.21 758ZM2796.02 402H2955.02C2993.02 402 3026.52 409.333 3055.52 424C3084.85 438.333 3107.52 458.667 3123.52 485C3139.85 511.333 3148.02 542 3148.02 577C3148.02 612 3139.85 642.667 3123.52 669C3107.52 695.333 3084.85 715.833 3055.52 730.5C3026.52 744.833 2993.02 752 2955.02 752H2796.02V402ZM2951.02 685.5C2986.02 685.5 3013.85 675.833 3034.52 656.5C3055.52 636.833 3066.02 610.333 3066.02 577C3066.02 543.667 3055.52 517.333 3034.52 498C3013.85 478.333 2986.02 468.5 2951.02 468.5H2877.02V685.5H2951.02ZM3480.1 687V752H3209.1V402H3473.6V467H3289.6V543H3452.1V606H3289.6V687H3480.1ZM3686.15 402H3767.15V686H3942.65V752H3686.15V402ZM4139.02 758C4089.02 758 4050.02 744.167 4022.02 716.5C3994.35 688.833 3980.52 649.333 3980.52 598V402H4061.52V595C4061.52 657.667 4087.52 689 4139.52 689C4164.85 689 4184.18 681.5 4197.52 666.5C4210.85 651.167 4217.52 627.333 4217.52 595V402H4297.52V598C4297.52 649.333 4283.52 688.833 4255.52 716.5C4227.85 744.167 4189.02 758 4139.02 758ZM4593.18 752L4508.68 630.5L4425.68 752H4332.68L4462.18 574L4339.18 402H4431.18L4511.68 515.5L4590.68 402H4678.18L4556.18 571L4686.68 752H4593.18ZM4989.38 687V752H4718.38V402H4982.88V467H4798.88V543H4961.38V606H4798.88V687H4989.38Z" fill="black"/>
<path d="M1461.42 945.552C1463.56 941.627 1466.71 938.64 1470.9 936.592C1475.08 934.544 1480.15 933.52 1486.13 933.52V945.424C1485.45 945.339 1484.51 945.296 1483.31 945.296C1476.66 945.296 1471.41 947.301 1467.57 951.312C1463.81 955.237 1461.94 960.869 1461.94 968.208V1002H1449.65V934.16H1461.42V945.552ZM1561.96 968.464C1561.96 969.403 1561.87 970.64 1561.7 972.176H1506.66C1507.43 978.149 1510.03 982.971 1514.47 986.64C1518.99 990.224 1524.58 992.016 1531.24 992.016C1539.35 992.016 1545.87 989.285 1550.82 983.824L1557.61 991.76C1554.54 995.344 1550.7 998.075 1546.09 999.952C1541.57 1001.83 1536.49 1002.77 1530.86 1002.77C1523.69 1002.77 1517.33 1001.32 1511.78 998.416C1506.24 995.429 1501.93 991.291 1498.86 986C1495.87 980.709 1494.38 974.736 1494.38 968.08C1494.38 961.509 1495.83 955.579 1498.73 950.288C1501.71 944.997 1505.77 940.901 1510.89 938C1516.09 935.013 1521.94 933.52 1528.42 933.52C1534.91 933.52 1540.67 935.013 1545.7 938C1550.82 940.901 1554.79 944.997 1557.61 950.288C1560.51 955.579 1561.96 961.637 1561.96 968.464ZM1528.42 943.888C1522.54 943.888 1517.59 945.68 1513.58 949.264C1509.65 952.848 1507.35 957.541 1506.66 963.344H1550.18C1549.5 957.627 1547.15 952.976 1543.14 949.392C1539.22 945.723 1534.31 943.888 1528.42 943.888ZM1601.85 933.52C1611.24 933.52 1618.41 935.824 1623.36 940.432C1628.39 945.04 1630.91 951.909 1630.91 961.04V1002H1619.26V993.04C1617.21 996.197 1614.27 998.629 1610.43 1000.34C1606.67 1001.96 1602.19 1002.77 1596.99 1002.77C1589.39 1002.77 1583.29 1000.93 1578.68 997.264C1574.16 993.595 1571.9 988.773 1571.9 982.8C1571.9 976.827 1574.08 972.048 1578.43 968.464C1582.78 964.795 1589.69 962.96 1599.16 962.96H1618.62V960.528C1618.62 955.237 1617.08 951.184 1614.01 948.368C1610.94 945.552 1606.42 944.144 1600.44 944.144C1596.43 944.144 1592.51 944.827 1588.67 946.192C1584.83 947.472 1581.59 949.221 1578.94 951.44L1573.82 942.224C1577.32 939.408 1581.5 937.275 1586.36 935.824C1591.23 934.288 1596.39 933.52 1601.85 933.52ZM1599.04 993.296C1603.73 993.296 1607.78 992.272 1611.2 990.224C1614.61 988.091 1617.08 985.104 1618.62 981.264V971.792H1599.68C1589.27 971.792 1584.06 975.291 1584.06 982.288C1584.06 985.701 1585.38 988.389 1588.03 990.352C1590.67 992.315 1594.34 993.296 1599.04 993.296ZM1653.65 907.024H1665.94V1002H1653.65V907.024ZM1785.09 968.464C1785.09 969.403 1785 970.64 1784.83 972.176H1729.79C1730.56 978.149 1733.16 982.971 1737.6 986.64C1742.12 990.224 1747.71 992.016 1754.37 992.016C1762.47 992.016 1769 989.285 1773.95 983.824L1780.73 991.76C1777.66 995.344 1773.82 998.075 1769.21 999.952C1764.69 1001.83 1759.61 1002.77 1753.98 1002.77C1746.81 1002.77 1740.46 1001.32 1734.91 998.416C1729.36 995.429 1725.05 991.291 1721.98 986C1718.99 980.709 1717.5 974.736 1717.5 968.08C1717.5 961.509 1718.95 955.579 1721.85 950.288C1724.84 944.997 1728.89 940.901 1734.01 938C1739.22 935.013 1745.06 933.52 1751.55 933.52C1758.03 933.52 1763.79 935.013 1768.83 938C1773.95 940.901 1777.92 944.997 1780.73 950.288C1783.63 955.579 1785.09 961.637 1785.09 968.464ZM1751.55 943.888C1745.66 943.888 1740.71 945.68 1736.7 949.264C1732.78 952.848 1730.47 957.541 1729.79 963.344H1773.31C1772.63 957.627 1770.28 952.976 1766.27 949.392C1762.34 945.723 1757.44 943.888 1751.55 943.888ZM1821.6 1002.77C1816.06 1002.77 1810.72 1002.04 1805.6 1000.59C1800.48 999.056 1796.47 997.136 1793.57 994.832L1798.69 985.104C1801.68 987.237 1805.31 988.944 1809.57 990.224C1813.84 991.504 1818.15 992.144 1822.5 992.144C1833.25 992.144 1838.63 989.072 1838.63 982.928C1838.63 980.88 1837.9 979.259 1836.45 978.064C1835 976.869 1833.17 976.016 1830.95 975.504C1828.81 974.907 1825.74 974.267 1821.73 973.584C1816.27 972.731 1811.79 971.749 1808.29 970.64C1804.88 969.531 1801.93 967.653 1799.46 965.008C1796.99 962.363 1795.75 958.651 1795.75 953.872C1795.75 947.728 1798.31 942.821 1803.43 939.152C1808.55 935.397 1815.42 933.52 1824.04 933.52C1828.56 933.52 1833.08 934.075 1837.6 935.184C1842.13 936.293 1845.84 937.787 1848.74 939.664L1843.49 949.392C1837.95 945.808 1831.42 944.016 1823.91 944.016C1818.7 944.016 1814.73 944.869 1812 946.576C1809.27 948.283 1807.91 950.544 1807.91 953.36C1807.91 955.579 1808.68 957.328 1810.21 958.608C1811.75 959.888 1813.63 960.827 1815.84 961.424C1818.15 962.021 1821.35 962.704 1825.44 963.472C1830.91 964.411 1835.3 965.435 1838.63 966.544C1842.04 967.568 1844.94 969.36 1847.33 971.92C1849.72 974.48 1850.92 978.064 1850.92 982.672C1850.92 988.816 1848.27 993.723 1842.98 997.392C1837.77 1000.98 1830.65 1002.77 1821.6 1002.77ZM1904.42 998.032C1902.63 999.568 1900.41 1000.76 1897.76 1001.62C1895.12 1002.38 1892.39 1002.77 1889.57 1002.77C1882.74 1002.77 1877.45 1000.93 1873.7 997.264C1869.94 993.595 1868.07 988.347 1868.07 981.52V944.272H1856.55V934.16H1868.07V919.312H1880.35V934.16H1899.81V944.272H1880.35V981.008C1880.35 984.677 1881.25 987.493 1883.04 989.456C1884.92 991.419 1887.56 992.4 1890.98 992.4C1894.73 992.4 1897.93 991.333 1900.58 989.2L1904.42 998.032ZM1943.98 933.52C1953.36 933.52 1960.53 935.824 1965.48 940.432C1970.52 945.04 1973.03 951.909 1973.03 961.04V1002H1961.39V993.04C1959.34 996.197 1956.39 998.629 1952.55 1000.34C1948.8 1001.96 1944.32 1002.77 1939.11 1002.77C1931.52 1002.77 1925.42 1000.93 1920.81 997.264C1916.29 993.595 1914.03 988.773 1914.03 982.8C1914.03 976.827 1916.2 972.048 1920.55 968.464C1924.91 964.795 1931.82 962.96 1941.29 962.96H1960.75V960.528C1960.75 955.237 1959.21 951.184 1956.14 948.368C1953.07 945.552 1948.54 944.144 1942.57 944.144C1938.56 944.144 1934.63 944.827 1930.79 946.192C1926.95 947.472 1923.71 949.221 1921.07 951.44L1915.95 942.224C1919.44 939.408 1923.63 937.275 1928.49 935.824C1933.35 934.288 1938.52 933.52 1943.98 933.52ZM1941.16 993.296C1945.85 993.296 1949.91 992.272 1953.32 990.224C1956.73 988.091 1959.21 985.104 1960.75 981.264V971.792H1941.8C1931.39 971.792 1926.19 975.291 1926.19 982.288C1926.19 985.701 1927.51 988.389 1930.15 990.352C1932.8 992.315 1936.47 993.296 1941.16 993.296ZM2033.92 998.032C2032.13 999.568 2029.91 1000.76 2027.26 1001.62C2024.62 1002.38 2021.89 1002.77 2019.07 1002.77C2012.24 1002.77 2006.95 1000.93 2003.2 997.264C1999.44 993.595 1997.57 988.347 1997.57 981.52V944.272H1986.05V934.16H1997.57V919.312H2009.85V934.16H2029.31V944.272H2009.85V981.008C2009.85 984.677 2010.75 987.493 2012.54 989.456C2014.42 991.419 2017.06 992.4 2020.48 992.4C2024.23 992.4 2027.43 991.333 2030.08 989.2L2033.92 998.032ZM2107.84 968.464C2107.84 969.403 2107.75 970.64 2107.58 972.176H2052.54C2053.31 978.149 2055.91 982.971 2060.35 986.64C2064.87 990.224 2070.46 992.016 2077.12 992.016C2085.22 992.016 2091.75 989.285 2096.7 983.824L2103.48 991.76C2100.41 995.344 2096.57 998.075 2091.96 999.952C2087.44 1001.83 2082.36 1002.77 2076.73 1002.77C2069.56 1002.77 2063.21 1001.32 2057.66 998.416C2052.11 995.429 2047.8 991.291 2044.73 986C2041.74 980.709 2040.25 974.736 2040.25 968.08C2040.25 961.509 2041.7 955.579 2044.6 950.288C2047.59 944.997 2051.64 940.901 2056.76 938C2061.97 935.013 2067.81 933.52 2074.3 933.52C2080.78 933.52 2086.54 935.013 2091.58 938C2096.7 940.901 2100.67 944.997 2103.48 950.288C2106.38 955.579 2107.84 961.637 2107.84 968.464ZM2074.3 943.888C2068.41 943.888 2063.46 945.68 2059.45 949.264C2055.53 952.848 2053.22 957.541 2052.54 963.344H2096.06C2095.38 957.627 2093.03 952.976 2089.02 949.392C2085.09 945.723 2080.19 943.888 2074.3 943.888Z" fill="#FF2626"/>
<path d="M722.117 646.96L1257.84 529.517L877.95 698.197L1093.94 1066.21L722.117 646.96Z" fill="#FF2626"/>
<path d="M649.185 705.4L931 1189.11L648.919 869.44L366.262 1189.11L649.185 705.4Z" fill="#FF2626"/>
<path d="M574.352 649.3L207.312 1072L418.984 701.929L25.2613 537.411L574.352 649.3Z" fill="#FF2626"/>
<path d="M603.42 556.229L92.285 327.898L507.905 422.865L550.88 -1.67698L603.42 556.229Z" fill="#FF2626"/>
<path d="M695.001 554.68L755.551 -1.85175L792.64 422.863L1209.9 333.551L695.001 554.68Z" fill="#FF2626"/>
</g>
<defs>
<clipPath id="clip0_308_380">
<rect width="5013" height="1189" fill="white"/>
</clipPath>
</defs>
</svg>
