<svg width="24" height="24" viewBox="0 0 24 24" fill="none" xmlns="http://www.w3.org/2000/svg">
<path d="M21.7634 20.3494L21.7635 20.3494L21.7604 20.3463L18.992 17.5794C20.5763 15.6416 21.3781 13.1773 21.2333 10.6729C21.0841 8.09169 19.941 5.66858 18.0437 3.91205C16.1465 2.15551 13.6426 1.20209 11.0575 1.25185C8.47249 1.30161 6.00718 2.35069 4.17893 4.17893C2.35069 6.00718 1.30161 8.47249 1.25185 11.0575C1.20209 13.6426 2.15551 16.1465 3.91205 18.0437C5.66858 19.941 8.09169 21.0841 10.6729 21.2333C13.177 21.3781 15.641 20.5765 17.5786 18.9927L20.3463 21.7604L20.3463 21.7604L20.3494 21.7634C20.538 21.9456 20.7907 22.0464 21.0528 22.0441C21.315 22.0418 21.5659 21.9367 21.7513 21.7513C21.9367 21.5659 22.0418 21.315 22.0441 21.0528C22.0464 20.7907 21.9456 20.538 21.7634 20.3494ZM16.907 16.907C15.4067 18.4073 13.3719 19.2501 11.2501 19.2501C9.12839 19.2501 7.09356 18.4073 5.59327 16.907C4.09298 15.4067 3.25012 13.3719 3.25012 11.2501C3.25012 9.12839 4.09298 7.09356 5.59327 5.59327C7.09356 4.09298 9.12839 3.25012 11.2501 3.25012C13.3719 3.25012 15.4067 4.09298 16.907 5.59327C18.4073 7.09356 19.2501 9.12839 19.2501 11.2501C19.2501 13.3719 18.4073 15.4067 16.907 16.907Z" fill="#E94B50" stroke="#E94B50" stroke-width="0.5"/>
</svg>
