<svg width="752" height="232" viewBox="0 0 752 232" fill="none" xmlns="http://www.w3.org/2000/svg">
<path d="M251.96 101.4V124H241.2V66.16H258.84C262.787 66.16 266.16 66.5733 268.96 67.4C271.787 68.2 274.093 69.3333 275.88 70.8C277.693 72.2667 279.013 74.0267 279.84 76.08C280.693 78.1067 281.12 80.3467 281.12 82.8C281.12 84.7467 280.827 86.5867 280.24 88.32C279.68 90.0533 278.853 91.6267 277.76 93.04C276.693 94.4533 275.36 95.6933 273.76 96.76C272.187 97.8267 270.387 98.68 268.36 99.32C269.72 100.093 270.893 101.2 271.88 102.64L286.36 124H276.68C275.747 124 274.947 123.813 274.28 123.44C273.64 123.067 273.093 122.533 272.64 121.84L260.48 103.32C260.027 102.627 259.52 102.133 258.96 101.84C258.427 101.547 257.627 101.4 256.56 101.4H251.96ZM251.96 93.68H258.68C260.707 93.68 262.467 93.4267 263.96 92.92C265.48 92.4133 266.72 91.72 267.68 90.84C268.667 89.9333 269.4 88.8667 269.88 87.64C270.36 86.4133 270.6 85.0667 270.6 83.6C270.6 80.6667 269.627 78.4133 267.68 76.84C265.76 75.2667 262.813 74.48 258.84 74.48H251.96V93.68ZM322.302 100C322.755 100.853 323.169 101.747 323.542 102.68C323.942 103.587 324.329 104.507 324.702 105.44C325.075 104.48 325.462 103.533 325.862 102.6C326.262 101.667 326.689 100.773 327.142 99.92L344.262 67.88C344.475 67.48 344.689 67.16 344.902 66.92C345.142 66.68 345.395 66.5067 345.662 66.4C345.955 66.2933 346.275 66.2267 346.622 66.2C346.969 66.1733 347.382 66.16 347.862 66.16H355.982V124H346.502V86.64C346.502 85.9467 346.515 85.1867 346.542 84.36C346.595 83.5333 346.662 82.6933 346.742 81.84L329.262 114.64C328.862 115.387 328.342 115.973 327.702 116.4C327.062 116.8 326.315 117 325.462 117H323.982C323.129 117 322.382 116.8 321.742 116.4C321.102 115.973 320.582 115.387 320.182 114.64L302.462 81.72C302.569 82.6 302.635 83.4667 302.662 84.32C302.715 85.1467 302.742 85.92 302.742 86.64V124H293.262V66.16H301.382C301.862 66.16 302.275 66.1733 302.622 66.2C302.969 66.2267 303.275 66.2933 303.542 66.4C303.835 66.5067 304.102 66.68 304.342 66.92C304.582 67.16 304.809 67.48 305.022 67.88L322.302 100ZM407.397 110.36C407.984 110.36 408.49 110.587 408.917 111.04L413.157 115.64C410.81 118.547 407.917 120.773 404.477 122.32C401.064 123.867 396.957 124.64 392.157 124.64C387.864 124.64 383.997 123.907 380.557 122.44C377.144 120.973 374.224 118.933 371.797 116.32C369.37 113.707 367.504 110.587 366.197 106.96C364.917 103.333 364.277 99.3733 364.277 95.08C364.277 90.7333 364.997 86.76 366.437 83.16C367.877 79.5333 369.904 76.4133 372.517 73.8C375.13 71.1867 378.25 69.16 381.877 67.72C385.53 66.2533 389.557 65.52 393.957 65.52C398.25 65.52 401.997 66.2133 405.197 67.6C408.424 68.96 411.184 70.7733 413.477 73.04L409.877 78.04C409.664 78.36 409.384 78.64 409.037 78.88C408.717 79.12 408.264 79.24 407.677 79.24C407.064 79.24 406.437 79 405.797 78.52C405.157 78.04 404.344 77.52 403.357 76.96C402.37 76.4 401.117 75.88 399.597 75.4C398.104 74.92 396.197 74.68 393.877 74.68C391.157 74.68 388.65 75.16 386.357 76.12C384.09 77.0533 382.13 78.4 380.477 80.16C378.85 81.92 377.57 84.0667 376.637 86.6C375.73 89.1067 375.277 91.9333 375.277 95.08C375.277 98.3333 375.73 101.227 376.637 103.76C377.57 106.293 378.824 108.427 380.397 110.16C381.97 111.893 383.824 113.227 385.957 114.16C388.09 115.067 390.384 115.52 392.837 115.52C394.304 115.52 395.624 115.44 396.797 115.28C397.997 115.12 399.09 114.867 400.077 114.52C401.09 114.173 402.037 113.733 402.917 113.2C403.824 112.64 404.717 111.96 405.597 111.16C405.864 110.92 406.144 110.733 406.437 110.6C406.73 110.44 407.05 110.36 407.397 110.36ZM488.138 95.08C488.138 99.32 487.431 103.213 486.018 106.76C484.604 110.307 482.618 113.36 480.058 115.92C477.498 118.48 474.418 120.467 470.818 121.88C467.218 123.293 463.231 124 458.858 124H436.778V66.16H458.858C463.231 66.16 467.218 66.88 470.818 68.32C474.418 69.7333 477.498 71.72 480.058 74.28C482.618 76.8133 484.604 79.8533 486.018 83.4C487.431 86.9467 488.138 90.84 488.138 95.08ZM477.138 95.08C477.138 91.9067 476.711 89.0667 475.858 86.56C475.004 84.0267 473.791 81.8933 472.218 80.16C470.644 78.4 468.724 77.0533 466.458 76.12C464.218 75.1867 461.684 74.72 458.858 74.72H447.618V115.44H458.858C461.684 115.44 464.218 114.973 466.458 114.04C468.724 113.107 470.644 111.773 472.218 110.04C473.791 108.28 475.004 106.147 475.858 103.64C476.711 101.107 477.138 98.2533 477.138 95.08ZM533.023 66.16V74.72H507.383V90.76H527.583V99.04H507.383V115.4H533.023V124H496.543V66.16H533.023ZM568.553 115.12H591.713V124H557.793V66.16H568.553V115.12ZM622.401 115.32C624.481 115.32 626.335 114.973 627.961 114.28C629.615 113.587 631.001 112.613 632.121 111.36C633.268 110.107 634.135 108.587 634.721 106.8C635.335 105.013 635.641 103.013 635.641 100.8V66.16H646.401V100.8C646.401 104.24 645.841 107.427 644.721 110.36C643.628 113.267 642.041 115.787 639.961 117.92C637.881 120.027 635.361 121.68 632.401 122.88C629.441 124.053 626.108 124.64 622.401 124.64C618.695 124.64 615.361 124.053 612.401 122.88C609.441 121.68 606.921 120.027 604.841 117.92C602.788 115.787 601.201 113.267 600.081 110.36C598.988 107.427 598.441 104.24 598.441 100.8V66.16H609.201V100.76C609.201 102.973 609.495 104.973 610.081 106.76C610.695 108.547 611.561 110.08 612.681 111.36C613.801 112.613 615.175 113.587 616.801 114.28C618.455 114.973 620.321 115.32 622.401 115.32ZM671.204 94.24L652.764 66.16H663.484C664.231 66.16 664.764 66.2667 665.084 66.48C665.431 66.6667 665.738 66.9867 666.004 67.44L679.164 88.68C679.298 88.3333 679.444 88 679.604 87.68C679.764 87.3333 679.951 86.9867 680.164 86.64L692.204 67.64C692.791 66.6533 693.551 66.16 694.484 66.16H704.804L686.164 93.8L705.324 124H694.564C693.844 124 693.258 123.813 692.804 123.44C692.378 123.067 692.018 122.64 691.724 122.16L678.324 100C678.218 100.32 678.098 100.627 677.964 100.92C677.831 101.187 677.698 101.44 677.564 101.68L664.724 122.16C664.431 122.613 664.071 123.04 663.644 123.44C663.218 123.813 662.684 124 662.044 124H651.964L671.204 94.24ZM748.101 66.16V74.72H722.461V90.76H742.661V99.04H722.461V115.4H748.101V124H711.621V66.16H748.101Z" fill="black"/>
<path d="M277.341 163L273.426 157.345H273.194H269.105V163H264.407V142.7H273.194C274.992 142.7 276.548 143 277.863 143.599C279.197 144.198 280.222 145.049 280.937 146.151C281.652 147.253 282.01 148.558 282.01 150.066C282.01 151.574 281.643 152.879 280.908 153.981C280.193 155.064 279.168 155.895 277.834 156.475L282.387 163H277.341ZM277.254 150.066C277.254 148.925 276.887 148.055 276.152 147.456C275.417 146.837 274.344 146.528 272.933 146.528H269.105V153.604H272.933C274.344 153.604 275.417 153.295 276.152 152.676C276.887 152.057 277.254 151.187 277.254 150.066ZM327.55 159.23V163H311.832V142.7H327.173V146.47H316.501V150.878H325.926V154.532H316.501V159.23H327.55ZM370.757 158.65H361.332L359.534 163H354.72L363.768 142.7H368.408L377.485 163H372.555L370.757 158.65ZM369.278 155.083L366.059 147.311L362.84 155.083H369.278ZM405.691 142.7H410.389V159.172H420.568V163H405.691V142.7ZM499.324 159.23V163H483.606V142.7H498.947V146.47H488.275V150.878H497.7V154.532H488.275V159.23H499.324ZM535.832 163.348C534.228 163.348 532.671 163.135 531.163 162.71C529.675 162.265 528.476 161.695 527.567 160.999L529.162 157.461C530.032 158.099 531.067 158.611 532.265 158.998C533.464 159.385 534.663 159.578 535.861 159.578C537.195 159.578 538.181 159.385 538.819 158.998C539.457 158.592 539.776 158.06 539.776 157.403C539.776 156.92 539.583 156.523 539.196 156.214C538.829 155.885 538.346 155.624 537.746 155.431C537.166 155.238 536.374 155.025 535.368 154.793C533.822 154.426 532.555 154.058 531.569 153.691C530.583 153.324 529.733 152.734 529.017 151.922C528.321 151.11 527.973 150.027 527.973 148.674C527.973 147.495 528.292 146.431 528.93 145.484C529.568 144.517 530.525 143.754 531.801 143.193C533.097 142.632 534.672 142.352 536.528 142.352C537.824 142.352 539.09 142.507 540.327 142.816C541.565 143.125 542.647 143.57 543.575 144.15L542.125 147.717C540.25 146.654 538.375 146.122 536.499 146.122C535.185 146.122 534.208 146.335 533.57 146.76C532.952 147.185 532.642 147.746 532.642 148.442C532.642 149.138 533 149.66 533.715 150.008C534.45 150.337 535.562 150.665 537.05 150.994C538.597 151.361 539.863 151.729 540.849 152.096C541.835 152.463 542.676 153.043 543.372 153.836C544.088 154.629 544.445 155.702 544.445 157.055C544.445 158.215 544.117 159.278 543.459 160.245C542.821 161.192 541.855 161.946 540.559 162.507C539.264 163.068 537.688 163.348 535.832 163.348ZM577.677 146.528H571.181V142.7H588.871V146.528H582.375V163H577.677V146.528ZM629.848 158.65H620.423L618.625 163H613.811L622.859 142.7H627.499L636.576 163H631.646L629.848 158.65ZM628.369 155.083L625.15 147.311L621.931 155.083H628.369ZM667.968 146.528H661.472V142.7H679.162V146.528H672.666V163H667.968V146.528ZM723.508 159.23V163H707.79V142.7H723.131V146.47H712.459V150.878H721.884V154.532H712.459V159.23H723.508Z" fill="#FF2626"/>
<path d="M131.486 111.333L210.804 93.9447L154.558 118.919L186.537 173.406L131.486 111.333Z" fill="#FF2626"/>
<path d="M120.686 119.984L162.411 191.601L120.647 144.271L78.797 191.601L120.686 119.984Z" fill="#FF2626"/>
<path d="M109.615 111.677L55.2719 174.261L86.6117 119.469L28.3178 95.1105L109.615 111.677Z" fill="#FF2626"/>
<path d="M113.911 97.9006L38.2329 64.0942L99.7689 78.155L106.132 15.2979L113.911 97.9006Z" fill="#FF2626"/>
<path d="M127.468 97.669L136.433 15.2698L141.924 78.1524L203.703 64.929L127.468 97.669Z" fill="#FF2626"/>
</svg>
