<svg width="24" height="25" viewBox="0 0 24 25" fill="none" xmlns="http://www.w3.org/2000/svg">
<path d="M3.275 15.796C2.425 14.692 2 14.139 2 12.5C2 10.86 2.425 10.309 3.275 9.204C4.972 7 7.818 4.5 12 4.5C16.182 4.5 19.028 7 20.725 9.204C21.575 10.31 22 10.861 22 12.5C22 14.14 21.575 14.691 20.725 15.796C19.028 18 16.182 20.5 12 20.5C7.818 20.5 4.972 18 3.275 15.796Z" stroke="white" stroke-width="1.5"/>
<path d="M15 12.5C15 13.2956 14.6839 14.0587 14.1213 14.6213C13.5587 15.1839 12.7956 15.5 12 15.5C11.2044 15.5 10.4413 15.1839 9.87868 14.6213C9.31607 14.0587 9 13.2956 9 12.5C9 11.7044 9.31607 10.9413 9.87868 10.3787C10.4413 9.81607 11.2044 9.5 12 9.5C12.7956 9.5 13.5587 9.81607 14.1213 10.3787C14.6839 10.9413 15 11.7044 15 12.5Z" stroke="white" stroke-width="1.5"/>
</svg>
