<svg width="24" height="25" viewBox="0 0 24 25" fill="none" xmlns="http://www.w3.org/2000/svg">
<path d="M5.89434 7.80793L3.6023 10.1C3.44208 10.2543 3.22776 10.3396 3.00531 10.3377C2.78244 10.3357 2.56925 10.2463 2.41165 10.0888C2.25406 9.93116 2.16466 9.71796 2.16273 9.4951C2.16079 9.27265 2.24615 9.05832 2.40043 8.89811L6.39946 4.89908C6.39946 4.89908 6.39947 4.89907 6.39947 4.89907C6.55887 4.73973 6.77503 4.65021 7.00041 4.65021C7.22579 4.65021 7.44194 4.73973 7.60134 4.89907C7.60135 4.89907 7.60135 4.89908 7.60136 4.89908L11.6004 8.89811C11.7547 9.05832 11.84 9.27265 11.8381 9.4951C11.8362 9.71796 11.7468 9.93116 11.5892 10.0888C11.4316 10.2463 11.2184 10.3357 10.9955 10.3377C10.773 10.3396 10.5587 10.2543 10.3985 10.1L8.10647 7.80793L7.85041 7.55187V7.914V19.5C7.85041 19.7254 7.76085 19.9416 7.60145 20.101C7.44204 20.2604 7.22584 20.35 7.00041 20.35C6.77497 20.35 6.55877 20.2604 6.39937 20.101C6.23996 19.9416 6.15041 19.7254 6.15041 19.5V7.914V7.55187L5.89434 7.80793ZM15.8943 17.1921L16.1504 17.4481V17.086V5.5C16.1504 5.27457 16.24 5.05837 16.3994 4.89896C16.5588 4.73955 16.775 4.65 17.0004 4.65C17.2258 4.65 17.442 4.73955 17.6014 4.89896C17.7609 5.05837 17.8504 5.27457 17.8504 5.5V17.086V17.4481L18.1065 17.1921L20.3976 14.9009C20.3979 14.9006 20.3982 14.9003 20.3985 14.9C20.5587 14.7457 20.7731 14.6604 20.9955 14.6623C21.2184 14.6643 21.4316 14.7537 21.5892 14.9112C21.7468 15.0688 21.8361 15.282 21.8381 15.5049C21.84 15.7273 21.7547 15.9417 21.6004 16.1019C21.6001 16.1022 21.5998 16.1025 21.5995 16.1028L17.6014 20.1009C17.442 20.2603 17.2258 20.3498 17.0004 20.3498C16.775 20.3498 16.5589 20.2603 16.3995 20.1009L12.4004 16.1019C12.2462 15.9417 12.1608 15.7274 12.1627 15.5049C12.1647 15.282 12.2541 15.0688 12.4117 14.9112C12.5693 14.7537 12.7824 14.6643 13.0053 14.6623C13.2278 14.6604 13.4421 14.7457 13.6023 14.9L15.8943 17.1921Z" fill="#333333" stroke="white" stroke-width="0.3"/>
</svg>
