<svg xmlns="http://www.w3.org/2000/svg" width="246.254" height="17.995" viewBox="0 0 246.254 17.995">
  <g id="DhLogoEn" transform="translate(-16.51 -45.093)">
    <path id="E" d="M1617.084,485.627h16.709l-.78,3.6h-9.61l-.683,3.149h9.007l-.779,3.6h-9.009l-.683,3.147h9.706l-.779,3.6h-16.806Z" transform="translate(-1371.03 -440.082)" fill="#b72200"/>
    <path id="M" d="M1416.783,485.627h11.132l1.16,11.46h.049l6.01-11.46h11.179l-3.706,17.094H1435.8l2.79-12.856h-.05l-7.569,12.856h-7.1l-1.7-12.856h-.073l-2.787,12.856h-6.232Z" transform="translate(-1202.213 -440.082)" fill="#b72200"/>
    <path id="O" d="M1284.195,497.8c-2.269,1.777-5.544,2.96-10.037,2.96-8.523,0-10.82-3.882-9.711-9a10.765,10.765,0,0,1,4.9-7.1c1.917-1.161,4.225-1.895,8.718-1.895,8.522,0,10.82,3.883,9.714,9a10.186,10.186,0,0,1-3.58,6.037m-6.976-11.152c-2.415,0-4.526,1.611-5.287,5.114s.655,5.115,3.069,5.115,4.527-1.61,5.287-5.115-.654-5.114-3.068-5.114" transform="translate(-1076.731 -437.67)" fill="#b72200"/>
    <path id="H" d="M1106.7,485.627h6.539l-1.369,6.324h8.068l1.368-6.324h7.341l-3.706,17.094H1117.6l1.431-6.6h-8.066l-1.434,6.6h-6.542Z" transform="translate(-940.872 -440.082)" fill="#b72200"/>
    <path id="N" d="M488.871,485.61l-3.079,17.127h-7.928l-8.9-10.842-1.948,10.842h-4.692L465.4,485.61h6.94l9.73,11.707,2.1-11.707Z" transform="translate(-400.924 -440.068)" fill="#b72200"/>
    <path id="U" d="M658.673,485.61,656.606,497.1c-.7,3.94-5.016,5.909-11.628,5.909-8.643,0-11.029-1.97-10.321-5.909l2.063-11.492h7.535l-1.9,10.578c-.277,1.506-.131,2.543.424,3.091s1.713.833,3.471.833q5.118,0,5.853-4.068l1.88-10.434Z" transform="translate(-546.067 -440.071)" fill="#b72200"/>
    <path id="B" d="M785.534,502.737l3.085-17.127h12.3c5.947,0,7.927,1.395,7.424,4.2-.361,1.994-2.38,3.266-6.071,3.834q6.325.853,5.666,4.542-.813,4.556-9.551,4.555ZM795,492h2.326c2.143,0,3.348-.76,3.593-2.132.2-1.133-.808-1.79-3.08-1.79h-2.133Zm-1.481,8.258h2.148c2.821,0,4.342-.661,4.725-2.785.434-2.434-.921-3-3.814-3h-2.024Z" transform="translate(-673.325 -440.071)" fill="#b72200"/>
    <path id="E-2" data-name="E" d="M957.756,485.61l-.6,3.333h-9.3l-.646,3.566h7.821l-.594,3.341H946.6l-.635,3.551h9.305l-.6,3.336h-16.83l3.074-17.127Z" transform="translate(-801.686 -440.068)" fill="#b72200"/>
    <path id="A" d="M329.587,502.737h7.578l-4.152-17.127h-7.7l-10.764,17.127h4.028l2.067-3.336h8.188ZM322.117,497l4.506-7.291,1.66,7.291Z" transform="translate(-276.375 -440.071)" fill="#b72200"/>
    <path id="D" d="M190.9,483.551l-2.772.013-.431,2.509,1.472.005c4.28,0,4.291,3.452,3.792,6.219s-.994,3.579-1.9,4.635a5.139,5.139,0,0,1-4.131,1.588h-2.024l2.765-14.929h-2.8l-.809,5h-2.341l-.8,4.4H178.36l-1.606,8.065h10.573q12.152,0,13.722-8.732,1.567-8.775-10.149-8.768" transform="translate(-160.244 -438.335)" fill="#b72200"/>
  </g>
</svg>
