<svg width="50" height="50" viewBox="0 0 50 50" fill="none" xmlns="http://www.w3.org/2000/svg">
<path fill-rule="evenodd" clip-rule="evenodd" d="M22.8 2.60413H27.2C31.0292 2.60413 34.0625 2.60413 36.4354 2.92288C38.8771 3.25204 40.8542 3.94371 42.4146 5.50204C43.9729 7.06246 44.6646 9.03954 44.9937 11.4812C45.3125 13.8562 45.3125 16.8875 45.3125 20.7166V29.2833C45.3125 33.1125 45.3125 36.1458 44.9937 38.5187C44.6646 40.9604 43.9729 42.9375 42.4146 44.4979C40.8542 46.0562 38.8771 46.7479 36.4354 47.077C34.0604 47.3958 31.0292 47.3958 27.2 47.3958H22.8C18.9708 47.3958 15.9375 47.3958 13.5646 47.077C11.1229 46.7479 9.14583 46.0562 7.58542 44.4979C6.02708 42.9375 5.33542 40.9604 5.00625 38.5187C4.6875 36.1437 4.6875 33.1125 4.6875 29.2833V20.7166C4.6875 16.8875 4.6875 13.8541 5.00625 11.4812C5.33542 9.03954 6.02708 7.06246 7.58542 5.50204C9.14583 3.94371 11.1229 3.25204 13.5646 2.92288C15.9396 2.60413 18.9708 2.60413 22.8 2.60413ZM13.9792 6.02079C11.8833 6.30204 10.675 6.83121 9.79167 7.71246C8.9125 8.59371 8.38333 9.80204 8.10208 11.8979C7.81458 14.0395 7.81042 16.8604 7.81042 20.8333V29.1666C7.81042 33.1395 7.81458 35.9625 8.10208 38.1041C8.38333 40.1979 8.9125 41.4062 9.79375 42.2875C10.675 43.1687 11.8833 43.6979 13.9792 43.9791C16.1208 44.2666 18.9417 44.2708 22.9146 44.2708H27.0812C31.0542 44.2708 33.8771 44.2666 36.0187 43.9791C38.1125 43.6979 39.3208 43.1687 40.2021 42.2875C41.0833 41.4062 41.6125 40.1979 41.8937 38.102C42.1812 35.9625 42.1854 33.1395 42.1854 29.1666V20.8333C42.1854 16.8604 42.1812 14.0395 41.8937 11.8958C41.6125 9.80204 41.0833 8.59371 40.2021 7.71246C39.3208 6.83121 38.1125 6.30204 36.0167 6.02079C33.8771 5.73329 31.0542 5.72913 27.0812 5.72913H22.9146C18.9417 5.72913 16.1229 5.73329 13.9792 6.02079ZM15.1042 16.6666C15.1042 16.2522 15.2688 15.8548 15.5618 15.5618C15.8548 15.2687 16.2523 15.1041 16.6667 15.1041H33.3333C33.7477 15.1041 34.1452 15.2687 34.4382 15.5618C34.7312 15.8548 34.8958 16.2522 34.8958 16.6666C34.8958 17.081 34.7312 17.4785 34.4382 17.7715C34.1452 18.0645 33.7477 18.2291 33.3333 18.2291H16.6667C16.2523 18.2291 15.8548 18.0645 15.5618 17.7715C15.2688 17.4785 15.1042 17.081 15.1042 16.6666ZM15.1042 25C15.1042 24.5856 15.2688 24.1881 15.5618 23.8951C15.8548 23.6021 16.2523 23.4375 16.6667 23.4375H33.3333C33.7477 23.4375 34.1452 23.6021 34.4382 23.8951C34.7312 24.1881 34.8958 24.5856 34.8958 25C34.8958 25.4144 34.7312 25.8118 34.4382 26.1048C34.1452 26.3978 33.7477 26.5625 33.3333 26.5625H16.6667C16.2523 26.5625 15.8548 26.3978 15.5618 26.1048C15.2688 25.8118 15.1042 25.4144 15.1042 25ZM15.1042 33.3333C15.1042 32.9189 15.2688 32.5215 15.5618 32.2284C15.8548 31.9354 16.2523 31.7708 16.6667 31.7708H27.0833C27.4977 31.7708 27.8952 31.9354 28.1882 32.2284C28.4812 32.5215 28.6458 32.9189 28.6458 33.3333C28.6458 33.7477 28.4812 34.1451 28.1882 34.4382C27.8952 34.7312 27.4977 34.8958 27.0833 34.8958H16.6667C16.2523 34.8958 15.8548 34.7312 15.5618 34.4382C15.2688 34.1451 15.1042 33.7477 15.1042 33.3333Z" fill="#E94B50"/>
</svg>
